<?xml version="1.0" encoding="utf-8"?>
<!-- Generator: Adobe Illustrator 24.0.2, SVG Export Plug-In . SVG Version: 6.00 Build 0)  -->
<svg version="1.1" id="Layer_1" xmlns="http://www.w3.org/2000/svg" xmlns:xlink="http://www.w3.org/1999/xlink" x="0px" y="0px"
	 viewBox="0 0 55.22 42.57" style="enable-background:new 0 0 55.22 42.57;" xml:space="preserve">
<style type="text/css">
	.st0{fill:#EFEDEF;}
	.st1{fill:#6A8D99;}
	.st2{fill:#C38F86;}
	.st3{fill:#935B50;}
	.st4{fill:#FFBA55;}
	.st5{fill:#025182;}
	.st6{fill:#E5CAF3;}
	.st7{fill:#6C7FD8;}
	.st8{fill:#F9977A;}
	.st9{fill:#0A0709;}
	.st10{fill:#DD765E;}
	.st11{fill:#1E1D22;}
	.st12{fill:#F73C4F;}
	.st13{fill:#7CA1B1;}
	.st14{fill:#5E7C24;}
	.st15{fill:#065082;}
	.st16{fill:#E6952A;}
	.st17{fill:#AF2F2F;}
	.st18{fill:#F58A97;}
	.st19{fill:#FEC165;}
	.st20{fill:#E19974;}
	.st21{fill:#D6694B;}
	.st22{fill:#F65B2B;}
	.st23{fill:#FFFFFF;}
</style>
<g>
	<path class="st0" d="M49.63,30.77c-2.49,9.67-10.04,9.38-22.43,9.38s-22.43,0.6-22.43-9.38S15.5,16.79,27.2,12.7
		C44.82,6.54,53.32,16.45,49.63,30.77z"/>
	<path class="st1" d="M42.51,40.37l-0.03-0.1c4.51-1.29,7.09-4.08,8.38-9.06c1.97-7.65,0.73-14.23-3.41-18.03
		c-4.48-4.12-11.89-4.66-20.86-1.52l-0.03-0.09C35.55,8.41,43,8.96,47.51,13.1c4.17,3.83,5.42,10.44,3.44,18.13
		C49.66,36.26,47.05,39.07,42.51,40.37z"/>
	<polygon class="st2" points="33.8,40.3 31.01,30.89 31.79,30.66 34.65,40.32 	"/>
	<polygon class="st2" points="28.03,40.3 27.18,40.32 30.05,30.66 30.83,30.89 	"/>
	<rect x="30.51" y="30.09" class="st2" width="0.81" height="10.23"/>
	<path class="st3" d="M26.78,29.62h7.61c0.37,0,0.68,0.3,0.68,0.68v0c0,0.37-0.3,0.68-0.68,0.68h-7.61c-0.37,0-0.68-0.3-0.68-0.68v0
		C26.11,29.92,26.41,29.62,26.78,29.62z"/>
	<path class="st4" d="M21.91,25.48v0.04c0,0.2-0.16,0.36-0.36,0.36h-1.07c-0.2,0-0.36-0.16-0.36-0.36v-1.44
		c0-0.2,0.16-0.36,0.36-0.36h1.07c0.2,0,0.36,0.16,0.36,0.36V25.48L21.91,25.48z"/>
	<path class="st5" d="M22.49,24.09h-0.59v0.21h0.48v0.96h-0.48v0.21h0.59c0.06,0,0.11-0.05,0.11-0.11c0,0,0,0,0,0V24.2
		C22.6,24.14,22.55,24.1,22.49,24.09C22.49,24.09,22.49,24.09,22.49,24.09z"/>
	<path class="st3" d="M21.09,24.46h0.3c0.04,0,0.07,0.03,0.07,0.07v0.3c0,0.04-0.03,0.07-0.07,0.07h-0.3
		c-0.04,0-0.07-0.03-0.07-0.07v-0.3C21.02,24.5,21.05,24.46,21.09,24.46z"/>
	<rect x="21.19" y="23.73" class="st6" width="0.1" height="0.74"/>
	<path class="st7" d="M28,28.02c-0.5,0.38-0.26,0.84-0.06,1.42l2.27,7.74l-1.64,0.87l-3.89-7.65c0,0-1.28-1.56,0.35-2.63L28,28.02z"
		/>
	<path class="st8" d="M28.83,24.46l-0.68-0.5c-0.1-0.07-0.21-0.12-0.33-0.13c-0.21-0.02-0.55-0.07-0.7-0.14
		c-0.14-0.07-0.22-0.01-0.14,0.13c0.04,0.08,0.2,0.19,0.6,0.32l-0.35,0.09c-0.1,0.03-0.21,0.01-0.31-0.05l-0.38-0.24
		c-0.05-0.03-0.11-0.02-0.15,0.02l0,0c-0.04,0.05-0.04,0.12,0.01,0.16c0,0,0.01,0.01,0.01,0.01l0.69,0.47c0,0-0.07,0.55,0.47,0.67
		c0.53,0.12,1.27-0.09,1.27-0.09L28.83,24.46z"/>
	<polygon class="st7" points="26.15,25.51 28.45,25.37 26.08,22.13 23.83,22.27 	"/>
	<path class="st8" d="M29.04,25.2l-1.2-1.01c0,0-0.65-0.19-1.02-0.34c-0.21-0.08-0.45-0.02-0.6,0.15c-0.14,0.16-0.13,0.32,0.25,0.58
		c0.58,0.38,0.87,0.52,1.05,0.57c0.06,0.02,0.4,0.15,0.4,0.15L29.04,25.2z"/>
	<path class="st8" d="M26.47,19.34l-0.77-0.36c-0.11-0.05-0.2-0.13-0.27-0.23c-0.11-0.17-0.31-0.45-0.44-0.54
		c-0.13-0.09-0.11-0.18,0.06-0.18c0.1,0,0.27,0.09,0.56,0.38l-0.07-0.34c-0.02-0.1-0.09-0.19-0.18-0.24l-0.39-0.23
		c-0.05-0.03-0.07-0.09-0.05-0.14l0,0c0.03-0.06,0.1-0.09,0.16-0.06c0,0,0,0,0.01,0l0.74,0.39c0,0,0.48-0.3,0.83,0.11
		c0.35,0.41,0.47,1.14,0.47,1.14L26.47,19.34z"/>
	<path class="st8" d="M32.03,14.09c-0.28-0.03-0.57,0.01-0.84,0.11c-0.13,0.05-0.58,0.23-0.79,0.67c-0.08,0.17-0.09,0.36-0.11,0.75
		c-0.01,0.24-0.1,0.42-0.09,0.72c0.02,0.24,0.07,0.48,0.16,0.7c0.13,0.35,0.07,0.56,0.13,0.62c0.24,0.26,0.92,0.02,0.95,0.37
		c0.02,0.22-0.15,0.27-0.13,0.52c0.04,0.33,1.13,0.1,1.44-0.08c0.04-0.02,0.43-0.3,0.37-0.68c-0.03-0.2-0.26-1.16-0.25-1.28
		c0.04-0.45,0.27-0.52,0.43-1.07c0.09-0.28,0.02-0.59-0.19-0.81C32.83,14.32,32.45,14.13,32.03,14.09z"/>
	
		<ellipse transform="matrix(0.9984 -0.0573 0.0573 0.9984 -0.8655 1.7672)" class="st9" cx="30.41" cy="15.99" rx="0.09" ry="0.11"/>
	
		<ellipse transform="matrix(0.9984 -0.0573 0.0573 0.9984 -0.8618 1.8159)" class="st9" cx="31.26" cy="15.95" rx="0.09" ry="0.11"/>
	<path class="st10" d="M32.58,16.22c-0.04-0.06-0.06-0.14-0.05-0.22c0.01-0.04,0.02-0.07,0.03-0.11c0.02-0.03,0.04-0.06,0.07-0.09
		c-0.01,0.03-0.03,0.07-0.04,0.1c-0.01,0.03-0.02,0.07-0.02,0.1C32.57,16.08,32.57,16.15,32.58,16.22z"/>
	<path class="st11" d="M31.17,17.98c0,0,0.67-0.02,1.02-0.55c0.17-0.25,0.15-0.75,0.11-1.03c-0.01-0.13,0-0.26,0.04-0.38
		c0.06-0.17,0.13-0.4,0.3-0.42c0.12-0.02,0.17-0.05,0.22,0.06c0.08,0.19-0.03,0.4-0.12,0.56c-0.12,0.22-0.22,0.27-0.22,0.41
		c0,0.11,0.34,0.32,0.4,0.27c0.12-0.09,0.04-0.36,0.35-1c0.2-0.41,0.3-0.49,0.31-0.74c0-0.09,0.02-0.45-0.21-0.66
		c-0.11-0.09-0.17-0.06-0.64-0.23c-0.13-0.04-0.26-0.09-0.38-0.15C32,13.96,32,13.86,31.78,13.81c-0.2-0.04-0.2,0.04-0.57,0.03
		c-0.36,0-0.39-0.08-0.55-0.03c-0.28,0.09-0.4,0.39-0.44,0.47c-0.07,0.14-0.1,0.29-0.09,0.45c0.02,0.16,0.09,0.3,0.19,0.42
		c0.05,0.04,0.22-0.23,0.32-0.33c0.1-0.1,0.21-0.07,0.37-0.06c0.15,0,0.15,0.09,0.38,0.16c0.08,0.02,0.39-0.13,0.51,0.04
		c0.12,0.18,0.21,0.2,0.16,0.37c-0.03,0.11,0,0.24,0.05,0.49c0.04,0.19-0.09,0.84-0.09,0.84c-0.06,0.12-0.19,0.17-0.31,0.12
		c-0.17-0.08-0.35-0.14-0.54-0.19c-0.22-0.06-0.46-0.02-0.65,0.1c-0.07,0.04-0.13,0.09-0.18,0.13c-0.07,0.06-0.11,0.14-0.1,0.23
		C30.28,17.34,30.43,18.02,31.17,17.98z M30.49,17.04c0.02-0.13,0.22-0.2,0.34-0.23c0.09-0.04,0.19-0.04,0.29-0.02
		c0.02,0.01,0.23,0.06,0.26,0.22c0.03,0.16-0.15,0.28-0.18,0.3c-0.14,0.09-0.31,0.1-0.46,0.04C30.63,17.29,30.47,17.17,30.49,17.04
		L30.49,17.04z"/>
	<path class="st9" d="M31.28,16.99c0,0-0.36,0.35-0.71,0.03"/>
	<path class="st12" d="M27.17,18.61c0.9,0.36,2.25,2.01,2.25,2.01l1.54-1.43l0.35-0.83l1.39-0.36c0.25-0.06,0.41-0.29,0.37-0.54
		l0-0.01l0.77,1.23c0.61,0.97,0.79,2.09,0.7,3.22l-0.27,4.69c0,0-4.34,0.51-4.15,0l0.03-0.83l-0.47-0.05l-1.03-0.2l0.13-1.25
		l1.07-0.04l0.4-0.31l0.04-1.31l-0.24,0.04c-0.62,0.1-1.37-0.18-1.76-0.66l-1.9-2.45C26.49,19.11,26.78,18.77,27.17,18.61z"/>
	<rect x="25.79" y="20.8" class="st13" width="0.04" height="1.14"/>
	<polygon class="st13" points="27.6,23.47 27.58,23.43 28.82,22.92 28.84,22.95 	"/>
	
		<rect x="26.64" y="21.92" transform="matrix(0.3903 -0.9207 0.9207 0.3903 -3.5845 38.4698)" class="st13" width="1.24" height="0.04"/>
	<path class="st7" d="M34.26,26.57c0.04,0.8-0.19,1.59-0.64,2.25c-0.45,0.64-1.19,1.02-1.98,1.01l-3.76-0.01
		c-0.64,0.03-1.18,0.02-1.37,0.61l-2.42,7.64l-1.86-0.22l1.51-8.4c0,0,0.06-1.67,1.88-1.93l4.43-0.8l0.07-0.63L34.26,26.57z"/>
	<polygon class="st14" points="30.06,26.75 30.04,26.71 30.95,26.18 30.97,26.21 	"/>
	<path class="st15" d="M25.81,32.63c0.04-0.35,0.07-0.69,0.11-1.04c0.03-0.35,0.14-0.69,0.32-0.99c0.18-0.31,0.45-0.55,0.78-0.69
		c0.08-0.03,0.17-0.05,0.26-0.06c0.09,0,0.18,0,0.26,0.01c0.17,0.03,0.35,0.02,0.52-0.02c-0.17,0.05-0.34,0.06-0.52,0.04
		c-0.09-0.01-0.17-0.01-0.26,0c-0.09,0.01-0.17,0.03-0.25,0.07c-0.32,0.14-0.58,0.38-0.75,0.68c-0.18,0.3-0.29,0.63-0.32,0.98
		C25.91,31.95,25.86,32.29,25.81,32.63z"/>
	<rect x="39.65" y="26.64" class="st3" width="0.86" height="13.68"/>
	<path class="st3" d="M16.39,25.98h25.63c0.08,0,0.15,0.07,0.15,0.15v0.36c0,0.08-0.07,0.15-0.15,0.15H16.39
		c-0.08,0-0.15-0.07-0.15-0.15v-0.36C16.24,26.04,16.31,25.98,16.39,25.98z"/>
	<rect x="17.96" y="26.64" class="st3" width="0.86" height="13.68"/>
	<path class="st2" d="M17.28,26.64h23.92l0,0v1.87c0,0.16-0.13,0.3-0.3,0.3H17.57c-0.16,0-0.3-0.13-0.3-0.3L17.28,26.64L17.28,26.64
		z"/>
	<polygon class="st16" points="25.39,11 23.83,11.02 23.84,12.52 	"/>
	<circle class="st16" cx="21.69" cy="6.63" r="0.65"/>
	<circle class="st16" cx="23.49" cy="6.63" r="0.65"/>
	<circle class="st16" cx="17.95" cy="8.23" r="0.65"/>
	<circle class="st16" cx="19.84" cy="8.23" r="0.65"/>
	<circle class="st16" cx="21.69" cy="8.23" r="0.65"/>
	<circle class="st16" cx="23.49" cy="8.23" r="0.65"/>
	<circle class="st16" cx="17.95" cy="9.83" r="0.65"/>
	<circle class="st16" cx="19.84" cy="9.83" r="0.65"/>
	<circle class="st16" cx="21.69" cy="9.83" r="0.65"/>
	<circle class="st16" cx="23.49" cy="9.83" r="0.65"/>
	<circle class="st16" cx="17.95" cy="11.33" r="0.65"/>
	<path class="st17" d="M19.47,9.2c0.16,0.19,0.31,0.39,0.43,0.6c0.06,0.11,0.12,0.21,0.18,0.32c0.06,0.11,0.1,0.22,0.14,0.34
		c-0.08-0.09-0.16-0.19-0.23-0.29c-0.07-0.1-0.14-0.2-0.2-0.31C19.66,9.65,19.55,9.43,19.47,9.2z"/>
	<path class="st17" d="M20.22,9.2c-0.08,0.23-0.19,0.46-0.32,0.67c-0.06,0.1-0.13,0.21-0.2,0.31c-0.07,0.1-0.15,0.2-0.23,0.29
		c0.04-0.12,0.09-0.23,0.14-0.34c0.05-0.11,0.11-0.22,0.18-0.32C19.91,9.58,20.05,9.38,20.22,9.2z"/>
	<polygon class="st18" points="41.45,13.93 41.57,13.77 37.09,10.54 35.73,10.54 35.73,10.74 37.02,10.74 	"/>
	<path class="st19" d="M41.51,14.05c0.11,0,0.19-0.09,0.19-0.19c0-0.06-0.03-0.12-0.08-0.16l-0.93-0.67
		c-0.09-0.06-0.21-0.04-0.27,0.04c-0.06,0.09-0.04,0.21,0.04,0.27l0,0l0.93,0.67C41.43,14.03,41.47,14.05,41.51,14.05z"/>
	<rect x="39" y="12.1" class="st18" width="0.2" height="12.37"/>
	<path class="st19" d="M35.33,12.39l-1.19-0.89c0.28-0.65,0.96-1.03,1.66-0.92C35.79,10.58,36.07,11.83,35.33,12.39z"/>
	<polygon class="st19" points="37.29,25.85 40.91,25.85 39.1,24.44 	"/>
	<path class="st19" d="M39.2,12.29H39c-0.06,0-0.1-0.04-0.1-0.1V12c0-0.06,0.04-0.1,0.1-0.1h0.19c0.06,0,0.1,0.04,0.1,0.1v0.19
		C39.3,12.25,39.25,12.29,39.2,12.29z"/>
	<path class="st4" d="M8.22,19.53c0,0-0.37,2.9-0.2,10.35l-1.17,7.65c-0.02,0.25,0.16,0.47,0.41,0.5l1.12,0.12
		c0.22,0.02,0.42-0.11,0.49-0.32l2.23-7.16l0.99,7.18c0.03,0.23,0.23,0.4,0.45,0.4h1.15c0.24,0,0.45-0.19,0.46-0.44
		c0.11-2.44,0.58-14.39-0.97-18.38L8.22,19.53z"/>
	<path class="st16" d="M13.47,20.65c-0.4,0.19-0.82,0.35-1.25,0.47c-0.43,0.12-0.87,0.2-1.32,0.25l-0.33,0.03l-0.34,0.01
		c-0.11,0-0.22,0-0.34-0.01c-0.11,0-0.22-0.01-0.33-0.03c-0.44-0.05-0.88-0.16-1.3-0.33c0.11,0.03,0.22,0.06,0.32,0.09
		c0.05,0.01,0.11,0.03,0.16,0.04l0.16,0.03c0.11,0.02,0.22,0.04,0.33,0.06l0.33,0.03c0.44,0.04,0.88,0.03,1.32-0.02
		c0.44-0.04,0.88-0.12,1.31-0.22c0.22-0.05,0.43-0.11,0.64-0.18C13.05,20.8,13.26,20.73,13.47,20.65z"/>
	<path class="st7" d="M9.61,11.17l1.87,0.1c0,0,2.5,0.19,2.5,2.35l0.21,2.05c0.18,0.29,0.32,0.61,0.42,0.94
		c0.24,0.9-0.06,1.73-0.97,1.94l0.08,1.38c0.02,0.3-0.18,0.56-0.47,0.63c-0.9,0.22-2.81,0.63-3.71,0.44L8.1,20.65l0.01-2.73
		c0,0-2.65,0.77-2.4-0.77c0.2-1.24,0.83-3.55,1.65-4.9c0.29-0.48,0.77-0.81,1.32-0.91L9.61,11.17z"/>
	<path class="st8" d="M9.54,16.19c0,0,1.02-1.05,2.1-0.62l-1.72,1.62L9.54,16.19z"/>
	<path class="st15" d="M12.89,14.26c0,0.25-0.01,0.5-0.02,0.74l-0.04,0.74l-0.05,0.74c-0.02,0.25-0.04,0.49-0.06,0.74
		c0-0.25,0.01-0.5,0.02-0.74l0.04-0.74L12.83,15C12.85,14.76,12.87,14.51,12.89,14.26z M6.42,16.25c0.52-0.02,1.04-0.03,1.56-0.05
		l1.56-0.04l0.02,0l0.01,0.02c0.15,0.38,0.28,0.75,0.43,1.13L10,17.33l-0.02,0.01l-1.09,0.34c-0.36,0.12-0.73,0.22-1.09,0.34
		c0.36-0.12,0.72-0.25,1.08-0.36l1.09-0.36l-0.01,0.03c-0.14-0.38-0.29-0.75-0.43-1.13l0.02,0.02l-1.56,0.02
		C7.46,16.24,6.94,16.25,6.42,16.25z"/>
	<polygon class="st5" points="14.08,15.48 11.34,15.58 9.26,17.94 12.25,17.77 	"/>
	<ellipse transform="matrix(0.0559 -0.9984 0.9984 0.0559 2.6433 21.4728)" class="st9" cx="12.68" cy="9.34" rx="0.12" ry="0.1"/>
	<ellipse transform="matrix(0.0559 -0.9984 0.9984 0.0559 1.8494 20.5331)" class="st9" cx="11.78" cy="9.29" rx="0.12" ry="0.1"/>
	<path class="st10" d="M10.39,9.57c0.01-0.08,0.02-0.15,0.01-0.23c0-0.04-0.01-0.07-0.02-0.11c-0.01-0.04-0.03-0.07-0.04-0.11
		c0.03,0.03,0.05,0.06,0.07,0.1c0.02,0.04,0.03,0.08,0.03,0.12C10.46,9.42,10.44,9.5,10.39,9.57z"/>
	<path class="st11" d="M10.97,10.07c0,0-0.12-0.72-0.08-0.92c0.06-0.28,0.09-0.42,0.06-0.54C10.91,8.42,11,8.4,11.12,8.21
		c0.12-0.18,0.45-0.01,0.53-0.04C11.9,8.1,11.89,8,12.05,8c0.16,0,0.29-0.04,0.39,0.07c0.1,0.11,0.28,0.41,0.33,0.36
		c0.11-0.13,0.18-0.29,0.21-0.46c0.01-0.17-0.02-0.33-0.09-0.49c-0.03-0.09-0.16-0.42-0.45-0.52C12.27,6.91,12.23,7,11.86,7
		c-0.39,0-0.4-0.09-0.6-0.04c-0.23,0.05-0.23,0.16-0.62,0.35c-0.13,0.06-0.26,0.11-0.4,0.16C9.74,7.64,9.68,7.6,9.56,7.7
		C9.31,7.92,9.33,8.32,9.33,8.42c0.01,0.27,0.11,0.36,0.32,0.8c0.32,0.7,0.24,0.99,0.36,1.09c0.06,0.05,0.42-0.17,0.43-0.3
		c0.01-0.16-0.1-0.21-0.23-0.45c-0.08-0.16-0.21-0.4-0.12-0.6c0.05-0.12,0.1-0.09,0.23-0.07c0.18,0.03,0.25,0.28,0.31,0.46
		c0.04,0.13,0.06,0.27,0.04,0.41C10.64,10.08,11.03,10.19,10.97,10.07z"/>
	<path class="st10" d="M11.75,10.42c0.11,0.07,0.24,0.11,0.37,0.13c0.06,0.01,0.12,0,0.18-0.02c0.06-0.02,0.13-0.04,0.19-0.07
		c-0.04,0.06-0.09,0.11-0.16,0.15c-0.03,0.02-0.07,0.03-0.11,0.04c-0.04,0.01-0.08,0.01-0.11,0c-0.07-0.01-0.15-0.03-0.21-0.08
		C11.84,10.54,11.79,10.48,11.75,10.42z"/>
	<path class="st11" d="M12.14,10.02c0.21,0,0.26-0.1,0.59,0.4c0,0-0.4-0.15-1.22,0C11.51,10.42,11.84,10.01,12.14,10.02z"/>
	<path class="st3" d="M45,16.56v23.77h5.37V16.56c0-0.14-0.12-0.26-0.26-0.26h-4.86C45.11,16.3,45,16.41,45,16.56
		C45,16.56,45,16.56,45,16.56z"/>
	<path class="st20" d="M45.55,20.62h4.26c0.14,0,0.26,0.12,0.26,0.26v3.03c0,0.14-0.12,0.26-0.26,0.26h-4.26
		c-0.14,0-0.26-0.12-0.26-0.26v-3.03C45.29,20.74,45.41,20.62,45.55,20.62z"/>
	<path class="st20" d="M45.55,16.69h4.26c0.14,0,0.26,0.12,0.26,0.26v3.03c0,0.14-0.12,0.26-0.26,0.26h-4.26
		c-0.14,0-0.26-0.12-0.26-0.26v-3.03C45.29,16.8,45.41,16.69,45.55,16.69z"/>
	<path class="st20" d="M45.55,28.5h4.26c0.14,0,0.26,0.12,0.26,0.26v3.03c0,0.14-0.12,0.26-0.26,0.26h-4.26
		c-0.14,0-0.26-0.12-0.26-0.26v-3.03C45.29,28.61,45.41,28.5,45.55,28.5z"/>
	<path class="st20" d="M45.55,32.43h4.26c0.14,0,0.26,0.12,0.26,0.26v3.03c0,0.14-0.12,0.26-0.26,0.26h-4.26
		c-0.14,0-0.26-0.12-0.26-0.26v-3.03C45.29,32.55,45.41,32.43,45.55,32.43z"/>
	<path class="st21" d="M47.05,17.98h1.27c0.06,0,0.1,0.04,0.1,0.1v0.34c0,0.06-0.04,0.1-0.1,0.1h-1.27c-0.06,0-0.1-0.04-0.1-0.1
		v-0.34C46.95,18.02,46.99,17.98,47.05,17.98z"/>
	<path class="st21" d="M47.05,29.79h1.27c0.06,0,0.1,0.04,0.1,0.1v0.34c0,0.06-0.04,0.1-0.1,0.1h-1.27c-0.06,0-0.1-0.04-0.1-0.1
		v-0.34C46.95,29.83,46.99,29.79,47.05,29.79z"/>
	<path class="st21" d="M47.05,33.72h1.27c0.06,0,0.1,0.04,0.1,0.1v0.34c0,0.06-0.04,0.1-0.1,0.1h-1.27c-0.06,0-0.1-0.04-0.1-0.1
		v-0.34C46.95,33.77,46.99,33.72,47.05,33.72z"/>
	<path class="st21" d="M47.05,21.91h1.27c0.06,0,0.1,0.04,0.1,0.1v0.34c0,0.06-0.04,0.1-0.1,0.1h-1.27c-0.06,0-0.1-0.04-0.1-0.1
		v-0.34C46.95,21.96,46.99,21.91,47.05,21.91z"/>
	<path class="st13" d="M46.56,34.66c0,0,2.62,0.05,3.02-0.39c0,0-0.86,3.08-0.21,4.59l-2.92-0.31
		C46.45,38.55,46.79,36.16,46.56,34.66z"/>
	<path class="st22" d="M45.91,35.03c0,0,2.62,0.05,3.02-0.39c0,0-0.86,3.08-0.21,4.59l-2.92-0.31
		C45.81,38.92,46.15,36.54,45.91,35.03z"/>
	<path class="st23" d="M46.24,35.32c0,0,2.62,0.05,3.02-0.39c0,0-0.86,3.08-0.21,4.59l-2.92-0.31
		C46.14,39.21,46.48,36.83,46.24,35.32z"/>
	<path class="st4" d="M46.56,23.03c0,0,2.62,0.05,3.02-0.39c0,0-0.86,3.08-0.21,4.59l-2.92-0.31C46.46,26.92,46.8,24.54,46.56,23.03
		z"/>
	<path class="st22" d="M45.92,23.41c0,0,2.62,0.05,3.02-0.39c0,0-0.86,3.08-0.21,4.59l-2.92-0.31
		C45.82,27.3,46.16,24.91,45.92,23.41z"/>
	<path class="st23" d="M46.25,23.7c0,0,2.62,0.05,3.02-0.39c0,0-0.86,3.08-0.21,4.59l-2.92-0.31C46.14,27.59,46.48,25.2,46.25,23.7z
		"/>
	<path class="st20" d="M45.55,36.37h4.26c0.14,0,0.26,0.12,0.26,0.26v3.03c0,0.14-0.12,0.26-0.26,0.26h-4.26
		c-0.14,0-0.26-0.12-0.26-0.26v-3.03C45.29,36.49,45.41,36.37,45.55,36.37z"/>
	<path class="st21" d="M47.05,37.66h1.27c0.06,0,0.1,0.04,0.1,0.1v0.34c0,0.06-0.04,0.1-0.1,0.1h-1.27c-0.06,0-0.1-0.04-0.1-0.1
		v-0.34C46.95,37.71,46.99,37.66,47.05,37.66z"/>
	<path class="st20" d="M45.55,24.56h4.26c0.14,0,0.26,0.12,0.26,0.26v3.03c0,0.14-0.12,0.26-0.26,0.26h-4.26
		c-0.14,0-0.26-0.12-0.26-0.26v-3.03C45.29,24.67,45.41,24.56,45.55,24.56z"/>
	<path class="st21" d="M47.05,25.85h1.27c0.06,0,0.1,0.04,0.1,0.1v0.34c0,0.06-0.04,0.1-0.1,0.1h-1.27c-0.06,0-0.1-0.04-0.1-0.1
		v-0.34C46.95,25.9,46.99,25.85,47.05,25.85z"/>
	<rect x="3.33" y="40.22" class="st3" width="49.94" height="0.2"/>
</g>
</svg>
